<?xml version="1.0" encoding="UTF-8"?><svg id="Layer_1" xmlns="http://www.w3.org/2000/svg" xmlns:xlink="http://www.w3.org/1999/xlink" viewBox="0 0 272.03 172.1"><defs><style>.cls-1{fill:none;}.cls-2{fill:url(#linear-gradient-3);}.cls-3{fill:url(#linear-gradient-2);}.cls-4{fill:url(#linear-gradient);}.cls-5{clip-path:url(#clippath-1);}.cls-6{clip-path:url(#clippath-2);}.cls-7{fill:#7cbb48;}.cls-8{fill:#b5b7b9;}.cls-9{clip-path:url(#clippath);}</style><clipPath id="clippath"><path class="cls-1" d="M172.3,109.49s5.48-5.69,11.38-5.69c0,5.89-5.7,11.37-5.7,11.37,0,0-5.47,5.7-11.37,5.7,0-5.9,5.7-11.38,5.7-11.38M175.15,96.6l-15.73,15.73v15.73s15.73,0,15.73,0l15.72-15.73v-15.73s-15.72,0-15.72,0Z"/></clipPath><linearGradient id="linear-gradient" x1="-198.69" y1="304.89" x2="-196.11" y2="304.89" gradientTransform="translate(-6689.12 -10576.98) rotate(-180) scale(35.06 -35.06)" gradientUnits="userSpaceOnUse"><stop offset="0" stop-color="#d1e4bb"/><stop offset="1" stop-color="#7cbb48"/></linearGradient><clipPath id="clippath-1"><path class="cls-1" d="M220.87,98.88s8.61-8.96,17.88-8.95c0,9.27-8.95,17.88-8.95,17.88,0,0-8.6,8.95-17.88,8.95,0-9.27,8.95-17.87,8.95-17.87M225.34,78.63l-24.72,24.71v24.73s24.72,0,24.72,0l24.71-24.72v-24.72h-24.71Z"/></clipPath><linearGradient id="linear-gradient-2" x1="-198.69" y1="305.69" x2="-196.11" y2="305.69" gradientTransform="translate(-6672.63 -10613.94) rotate(-180) scale(35.06 -35.06)" xlink:href="#linear-gradient"/><clipPath id="clippath-2"><path class="cls-1" d="M195.19,51.37s10.47-10.88,21.74-10.88c0,11.27-10.9,21.73-10.9,21.73,0,0-10.45,10.89-21.74,10.89,0-11.27,10.89-21.74,10.89-21.74M200.62,26.74l-30.06,30.06v30.06s30.05,0,30.05,0l30.06-30.06v-30.06h-30.05Z"/></clipPath><linearGradient id="linear-gradient-3" x1="-198.69" y1="304.98" x2="-196.11" y2="304.98" gradientTransform="translate(-6724.23 -10635.63) rotate(-180) scale(35.06 -35.06)" xlink:href="#linear-gradient"/></defs><g class="cls-9"><rect class="cls-4" x="153.52" y="90.71" width="43.24" height="43.24" transform="translate(-11.99 203.29) rotate(-58.6)"/></g><g class="cls-5"><rect class="cls-3" x="191.36" y="69.37" width="67.95" height="67.95" transform="translate(19.72 241.83) rotate(-58.6)"/></g><g class="cls-6"><rect class="cls-2" x="159.29" y="15.48" width="82.64" height="82.64" transform="translate(47.61 198.44) rotate(-58.6)"/></g><polygon class="cls-7" points="37.79 78.01 37.79 128.06 19.65 128.06 19.65 78.01 6.72 78.01 0 62.12 65.63 62.12 58.95 78.01 37.79 78.01"/><path class="cls-7" d="M116.5,128.06c23.57,0,37.31-14.03,37.31-32.92v-.66c0-18.89-13.55-32.36-36.94-32.36h-25.26l18.15,42.89v-26.99h7.39c10.86,0,18.05,6.08,18.05,16.56v.85c0,10.57-7.2,16.55-18.05,16.55h-8.68l-21.08-49.86h-17.49l-27.88,65.94h19.07l4.68-11.69h21.23l-5.5-14.13h-10.4l7.39-18.61,17.33,44.43h20.66Z"/><polygon class="cls-8" points="33.92 144.15 53.65 144.15 53.65 148.3 38.72 148.3 38.72 155.48 52.54 155.48 52.54 159.39 38.72 159.39 38.72 167.42 53.92 167.42 53.92 171.56 33.92 171.56 33.92 144.15"/><path class="cls-8" d="M57.49,151.71h4.15v2.92l.07.07c1.31-2.19,3.57-3.53,6.18-3.53,4.3,0,7.02,2.31,7.02,6.76v13.63h-4.38v-12.48c-.08-3.11-1.31-4.45-3.88-4.45-2.92,0-4.8,2.3-4.8,5.22v11.71h-4.38v-19.85Z"/><polygon class="cls-8" points="77.57 151.71 82.33 151.71 87.36 166.95 87.43 166.95 92.27 151.71 96.8 151.71 89.7 171.56 84.78 171.56 77.57 151.71"/><path class="cls-8" d="M99.56,144.15h4.38v4.15h-4.38v-4.15ZM99.56,151.72h4.38v19.84h-4.38v-19.84Z"/><path class="cls-8" d="M108.7,151.71h4.11v3.84h.08c.5-2.11,3.11-4.38,5.79-4.38,1,0,1.27.08,1.65.12v4.23c-.61-.08-1.27-.19-1.88-.19-2.99,0-5.37,2.42-5.37,6.8v9.44h-4.38v-19.85Z"/><path class="cls-8" d="M120.6,161.62c0-6.07,3.65-10.44,10.02-10.44s10.02,4.38,10.02,10.44-3.65,10.48-10.02,10.48-10.02-4.38-10.02-10.48M136.26,161.62c0-3.41-1.73-6.99-5.64-6.99s-5.64,3.57-5.64,6.99,1.73,7.03,5.64,7.03,5.64-3.57,5.64-7.03"/><path class="cls-8" d="M144.29,151.71h4.15v2.92l.08.07c1.3-2.19,3.57-3.53,6.18-3.53,4.3,0,7.02,2.31,7.02,6.76v13.63h-4.38v-12.48c-.08-3.11-1.3-4.45-3.88-4.45-2.92,0-4.8,2.3-4.8,5.22v11.71h-4.38v-19.85Z"/><path class="cls-8" d="M166.32,151.71h4.15v2.76h.11c1.31-1.96,2.96-3.3,6.1-3.3,2.42,0,4.68,1.04,5.57,3.3,1.46-2.04,3.34-3.3,6.22-3.3,4.18,0,6.64,1.84,6.64,6.68v13.7h-4.38v-11.59c0-3.15-.19-5.33-3.61-5.33-2.96,0-4.22,1.96-4.22,5.3v11.63h-4.38v-12.74c0-2.73-.84-4.18-3.49-4.18-2.27,0-4.34,1.84-4.34,5.14v11.78h-4.38v-19.85Z"/><path class="cls-8" d="M203.13,162.77c0,3.11,1.69,5.88,5.33,5.88,2.54,0,4.07-1.11,4.84-3.3h4.15c-.96,4.34-4.65,6.76-8.98,6.76-6.22,0-9.71-4.34-9.71-10.44,0-5.64,3.69-10.48,9.6-10.48,6.26,0,10.1,5.64,9.37,11.59h-14.59ZM213.35,159.89c-.15-2.77-2.04-5.26-4.99-5.26s-5.1,2.3-5.22,5.26h10.21Z"/><path class="cls-8" d="M221.06,151.71h4.15v2.92l.07.07c1.31-2.19,3.57-3.53,6.18-3.53,4.3,0,7.02,2.31,7.02,6.76v13.63h-4.38v-12.48c-.08-3.11-1.31-4.45-3.88-4.45-2.92,0-4.8,2.3-4.8,5.22v11.71h-4.38v-19.85Z"/><path class="cls-8" d="M241.1,151.71h3.3v-5.95h4.38v5.95h3.95v3.27h-3.95v10.59c0,1.8.15,2.73,2.11,2.73.62,0,1.23,0,1.84-.16v3.38c-.96.07-1.88.23-2.84.23-4.57,0-5.41-1.77-5.49-5.07v-11.71h-3.3v-3.27Z"/></svg>